<svg width="417.48293457031247px" height="171.63635864257813px" xmlns="http://www.w3.org/2000/svg" viewBox="41.25853271484377 -10.818179321289065 417.48293457031247 171.63635864257813" style="background: rgba(0, 0, 0, 0);" preserveAspectRatio="xMidYMid"><defs><linearGradient id="editing-gradient-gradient" x1="0" x2="1" y1="0.5" y2="0.5" gradientUnits="objectBoundingBox"><stop offset="0" stop-color="#f0f"></stop><stop offset="1" stop-color="#0ff"></stop></linearGradient></defs><g><g transform="translate(102.82502698898315, 112.46500587463379)"><path d="M2.89 0L2.89-65.28L20.14-65.28L20.14-65.28Q27.97-65.28 31.31-60.23L31.31-60.23L31.31-60.23Q34.66-55.18 34.66-45.45L34.66-45.45L34.66-45.45Q34.66-35.72 31.69-30.78L31.69-30.78L31.69-30.78Q28.73-25.84 21.05-25.84L21.05-25.84L15.73-25.84L15.73 0L2.89 0ZM15.73-37.62L16.49-37.62L16.49-37.62Q18.85-37.62 19.95-38.49L19.95-38.49L19.95-38.49Q21.05-39.37 21.39-41.00L21.39-41.00L21.39-41.00Q21.74-42.64 21.74-45.68L21.74-45.68L21.74-45.68Q21.74-49.78 20.82-51.60L20.82-51.60L20.82-51.60Q19.91-53.43 17.18-53.43L17.18-53.43L15.73-53.43L15.73-37.62ZM49.25 0.61L49.25 0.61Q43.02 0.61 40.70-3.12L40.70-3.12L40.70-3.12Q38.38-6.84 38.38-14.21L38.38-14.21L38.38-55.63L51.76-55.63L51.76-16.87L51.76-16.87Q51.76-16.34 51.76-14.02L51.76-14.02L51.76-14.02Q51.76-11.70 52.48-10.75L52.48-10.75L52.48-10.75Q53.20-9.80 54.72-9.80L54.72-9.80L54.72-9.80Q56.77-9.80 57.30-11.51L57.30-11.51L57.30-11.51Q57.84-13.22 57.84-16.42L57.84-16.42L57.84-16.87L57.91-55.63L71.14-55.63L71.14 0L57.84 0L57.84-5.93L57.84-5.93Q56.47-2.43 54.64-0.91L54.64-0.91L54.64-0.91Q52.82 0.61 49.25 0.61L49.25 0.61ZM89.98 0L76.46 0L76.46-65.66L89.98-65.66L89.98 0ZM110.58 0.61L110.58 0.61Q94.09 0.61 94.09-16.11L94.09-16.11L94.16-20.52L107.46-20.52L107.54-13.98L107.54-13.98Q107.54-12.01 108.30-10.98L108.30-10.98L108.30-10.98Q109.06-9.96 110.81-9.96L110.81-9.96L110.81-9.96Q113.47-9.96 113.47-14.29L113.47-14.29L113.47-14.29Q113.47-17.48 112.21-19.30L112.21-19.30L112.21-19.30Q110.96-21.13 108.22-23.18L108.22-23.18L101.16-28.65L101.16-28.65Q97.51-31.46 95.91-34.47L95.91-34.47L95.91-34.47Q94.32-37.47 94.32-42.94L94.32-42.94L94.32-42.94Q94.32-47.20 96.56-50.20L96.56-50.20L96.56-50.20Q98.80-53.20 102.52-54.72L102.52-54.72L102.52-54.72Q106.25-56.24 110.81-56.24L110.81-56.24L110.81-56.24Q127.00-56.24 127.00-40.13L127.00-40.13L127.00-39.06L113.24-39.06L113.24-41.19L113.24-41.19Q113.24-43.17 112.59-44.57L112.59-44.57L112.59-44.57Q111.95-45.98 110.43-45.98L110.43-45.98L110.43-45.98Q109.06-45.98 108.34-45.18L108.34-45.18L108.34-45.18Q107.62-44.38 107.62-43.02L107.62-43.02L107.62-43.02Q107.62-39.98 109.97-38.30L109.97-38.30L118.18-32.30L118.18-32.30Q122.59-29.03 124.94-25.19L124.94-25.19L124.94-25.19Q127.30-21.36 127.30-15.50L127.30-15.50L127.30-15.50Q127.30-7.75 122.89-3.57L122.89-3.57L122.89-3.57Q118.48 0.61 110.58 0.61L110.58 0.61ZM146.98 0.61L146.98 0.61Q138.40 0.61 134.67-4.10L134.67-4.10L134.67-4.10Q130.95-8.82 130.95-18.16L130.95-18.16L130.95-40.51L130.95-40.51Q130.95-48.18 135.36-52.21L135.36-52.21L135.36-52.21Q139.76-56.24 147.67-56.24L147.67-56.24L147.67-56.24Q163.70-56.24 163.70-40.51L163.70-40.51L163.70-36.48L163.70-36.48Q163.70-30.40 163.55-26.60L163.55-26.60L144.25-26.60L144.25-15.81L144.25-15.81Q144.25-12.92 144.86-11.29L144.86-11.29L144.86-11.29Q145.46-9.65 147.44-9.65L147.44-9.65L147.44-9.65Q148.96-9.65 149.61-10.56L149.61-10.56L149.61-10.56Q150.25-11.48 150.37-12.65L150.37-12.65L150.37-12.65Q150.48-13.83 150.48-16.11L150.48-16.11L150.48-21.51L163.70-21.51L163.70-18.32L163.70-18.32Q163.70-8.59 159.94-3.99L159.94-3.99L159.94-3.99Q156.18 0.61 146.98 0.61L146.98 0.61ZM144.17-33.21L150.48-33.21L150.48-40.36L150.48-40.36Q150.48-46.36 147.52-46.36L147.52-46.36L147.52-46.36Q144.17-46.36 144.17-40.36L144.17-40.36L144.17-33.21ZM168.72 0L168.72-65.28L185.97-65.28L185.97-65.28Q193.80-65.28 197.14-60.23L197.14-60.23L197.14-60.23Q200.49-55.18 200.49-45.45L200.49-45.45L200.49-45.45Q200.49-35.72 197.52-30.78L197.52-30.78L197.52-30.78Q194.56-25.84 186.88-25.84L186.88-25.84L181.56-25.84L181.56 0L168.72 0ZM181.56-37.62L182.32-37.62L182.32-37.62Q184.68-37.62 185.78-38.49L185.78-38.49L185.78-38.49Q186.88-39.37 187.23-41.00L187.23-41.00L187.23-41.00Q187.57-42.64 187.57-45.68L187.57-45.68L187.57-45.68Q187.57-49.78 186.66-51.60L186.66-51.60L186.66-51.60Q185.74-53.43 183.01-53.43L183.01-53.43L181.56-53.43L181.56-37.62ZM217.89 0L204.36 0L204.36-65.66L217.89-65.66L217.89 0ZM233.32 0.61L233.32 0.61Q226.86 0.61 224.47-3.69L224.47-3.69L224.47-3.69Q222.07-7.98 222.07-15.96L222.07-15.96L222.07-15.96Q222.07-22.50 223.78-25.99L223.78-25.99L223.78-25.99Q225.49-29.49 228.53-31.12L228.53-31.12L228.53-31.12Q231.57-32.76 237.80-34.73L237.80-34.73L241.45-35.95L241.45-36.10L241.45-41.65L241.45-41.65Q241.45-43.85 240.58-45.03L240.58-45.03L240.58-45.03Q239.70-46.21 238.49-46.21L238.49-46.21L238.49-46.21Q237.42-46.21 236.63-45.22L236.63-45.22L236.63-45.22Q235.83-44.23 235.83-42.56L235.83-42.56L235.83-39.22L222.91-39.22L222.91-41.04L222.91-41.04Q222.91-49.25 226.75-52.74L226.75-52.74L226.75-52.74Q230.58-56.24 239.25-56.24L239.25-56.24L239.25-56.24Q246.16-56.24 250.50-52.63L250.50-52.63L250.50-52.63Q254.83-49.02 254.83-42.41L254.83-42.41L254.83 0L241.60 0L241.60-6.61L241.60-6.61Q240.62-3.19 238.45-1.29L238.45-1.29L238.45-1.29Q236.28 0.61 233.32 0.61L233.32 0.61ZM238.56-9.73L238.56-9.73Q240.08-9.73 240.73-10.98L240.73-10.98L240.73-10.98Q241.38-12.24 241.38-14.06L241.38-14.06L241.38-29.56L241.38-29.56Q238.41-28.42 237.01-26.68L237.01-26.68L237.01-26.68Q235.60-24.93 235.60-21.81L235.60-21.81L235.60-14.67L235.60-14.67Q235.60-9.73 238.56-9.73L238.56-9.73ZM258.86 9.27L258.86 0.84L265.24 0.84L265.24 0.84Q266.61 0.84 266.61-0.30L266.61-0.30L266.61-0.30Q266.61-0.84 266.53-1.14L266.53-1.14L257.87-55.63L270.56-55.63L273.07-28.50L274.28-14.67L275.73-28.50L278.69-55.63L291.46-55.63L281.12 2.89L281.12 2.89Q280.59 6.16 278.96 7.71L278.96 7.71L278.96 7.71Q277.32 9.27 273.83 9.27L273.83 9.27L258.86 9.27Z" fill="url(#editing-gradient-gradient)"></path></g></g><style>text {
  font-size: 64px;
  font-family: Arial Black;
  dominant-baseline: central;
  text-anchor: middle;
}</style></svg>